<svg width="137" height="129" viewBox="0 0 137 129" fill="none" xmlns="http://www.w3.org/2000/svg">
<path d="M57.9827 126.724C57.5094 127.224 57.036 127.724 56.5627 128.224C55.0627 128.154 52.9927 127.974 50.5727 127.474C48.7827 127.114 45.4927 126.304 40.0927 123.734C37.0827 122.294 32.2227 119.944 26.6227 115.604C23.4727 113.164 17.0627 107.744 11.3027 98.9343C9.06268 95.5043 5.77269 89.8143 3.32269 82.1843C0.772688 74.2743 0.252681 67.8143 0.112681 65.3643C-0.547319 54.0443 1.88269 45.5443 2.46269 43.6243C3.00269 41.8443 4.65268 37.8543 7.95268 29.8743C9.36268 26.4643 8.84269 28.2943 9.23269 27.2343C9.38269 26.8243 9.54269 26.3243 10.0227 25.9543C10.1427 25.8543 10.6627 25.4643 11.3727 25.5243C11.8927 25.5643 12.2427 25.8243 12.5127 26.0243C12.6627 26.1343 13.0227 26.4243 13.2927 26.8743C13.6827 27.5243 13.6727 28.1643 13.6527 29.1543C13.6127 30.7043 13.6027 31.4843 13.5827 31.7243C13.5527 32.1443 13.4027 34.4043 13.5127 36.4243C13.5827 37.9143 13.7827 39.0143 13.9427 39.8443C14.7927 44.5743 17.0627 50.1543 17.4327 51.0343C19.7927 56.7943 20.9827 59.6743 22.9127 63.3643C25.3627 68.0143 27.5027 71.1643 31.6827 77.2643C34.4427 81.2843 37.1327 84.9343 42.5127 92.2343C46.7527 97.9743 48.0227 99.5943 51.0727 103.854C54.0727 108.044 56.4527 111.504 57.9827 113.754C57.9827 118.081 57.9827 122.404 57.9827 126.724Z" fill="#C7DC77"/>
<path d="M64.6127 126.444C65.2793 127.158 65.9427 127.871 66.6027 128.584C68.3893 128.584 70.1727 128.584 71.9527 128.584C72.7127 127.871 73.4727 127.158 74.2327 126.444C74.2327 122.524 74.2327 118.604 74.2327 114.684C73.546 114.184 72.856 113.684 72.1627 113.184C70.2893 113.184 68.4127 113.184 66.5327 113.184C65.8927 113.804 65.2527 114.421 64.6127 115.034C64.6127 118.841 64.6127 122.644 64.6127 126.444Z" fill="#19214F"/>
<path d="M80.2227 113.614C80.2227 118.008 80.2227 122.401 80.2227 126.794C80.7693 127.274 81.316 127.751 81.8627 128.224C82.4627 128.094 83.3227 127.904 84.3527 127.654C85.1227 127.464 89.1927 126.454 93.3327 124.874C100.893 121.994 106.873 117.924 107.443 117.534C112.353 114.154 116.013 110.634 118.563 107.844C119.813 106.474 123.933 101.834 127.833 94.7243C132.503 86.1843 134.263 78.8143 134.813 76.2643C136.333 69.2743 136.333 63.8143 136.313 60.5843C136.263 52.4743 135.063 46.5043 133.463 40.6343C132.913 38.6343 131.583 35.3143 130.253 31.9843C130.163 31.7643 128.763 28.9243 128.043 28.3743C127.703 28.1143 127.273 28.0343 126.833 27.9443C126.323 27.8443 125.973 27.7743 125.623 27.9443C125.253 28.1243 125.073 28.4543 124.903 28.8043C124.513 29.5943 124.483 30.3243 124.483 30.4443C124.393 33.0243 124.353 34.3143 124.483 35.0743C124.993 38.1743 124.173 42.1143 123.553 45.0543C122.873 48.2643 121.703 50.6843 119.343 55.5243C117.273 59.7843 115.423 62.8643 113.643 65.7943C111.703 68.9843 109.773 71.9643 106.943 76.0543C103.173 81.5243 102.723 81.8843 96.9727 89.8843C91.1127 98.0243 88.4327 102.034 82.0027 110.624C81.636 111.111 81.3493 111.491 81.1427 111.764C80.836 112.378 80.5293 112.994 80.2227 113.614Z" fill="#C7DC77"/>
<path d="M64.6127 106.554C67.626 106.554 70.6427 106.554 73.6627 106.554C73.996 106.388 74.3527 106.174 74.7327 105.914C75.3827 105.464 75.9027 104.984 76.3027 104.564C76.6927 103.954 77.2827 103.064 78.0127 101.994C80.2427 98.7243 82.0627 96.3643 82.7127 95.5143C82.7127 95.5143 86.2527 90.9043 91.1927 84.2543C92.6427 82.3043 95.2927 78.4143 100.533 70.7043C107.433 60.5543 109.243 57.7843 111.223 53.7443C112.313 51.5243 113.683 48.4543 114.783 44.4843C115.123 43.2843 115.693 41.2143 116.073 38.4943C116.403 36.1043 116.953 31.9543 116.073 26.9443C115.693 24.8143 114.753 19.8143 111.083 14.6943C106.773 8.6843 101.243 6.10432 98.9627 5.06432C95.7727 3.61432 92.9227 2.98431 89.1327 2.14431C85.4027 1.32431 82.5427 0.984312 80.2227 0.724312C73.4427 -0.0556883 68.2127 -0.00568952 67.0327 0.00431048C61.8627 0.0743105 56.4627 0.144311 49.5727 1.86431C49.5727 1.86431 41.3727 3.90431 33.8227 8.48431C32.1527 9.50431 30.4727 10.6843 28.8327 12.4843C26.9527 14.5343 25.9427 16.4943 25.4127 17.5443C24.1227 20.0743 23.5927 22.2043 23.2027 23.8143C23.0627 24.3943 22.5927 26.3743 22.3427 29.0843C22.1627 31.1243 21.9927 34.7243 22.7027 39.1343C23.2627 42.5743 24.1227 45.0943 24.7027 46.7643C25.7127 49.6743 26.7227 51.7143 27.9827 54.2443C29.6127 57.5243 31.3027 60.4943 33.2527 63.6543C35.7627 67.7043 37.7927 70.5743 40.5227 74.4143C47.6427 84.4143 51.2027 89.4043 53.9927 93.0843C56.7527 96.7243 60.3227 101.314 64.6127 106.554Z" fill="#19214F"/>
<path d="M66.4627 62.3743C66.4627 60.0043 64.5527 58.0943 62.1927 58.0943C59.8227 58.0943 57.9127 60.0043 57.9127 62.3743C57.9127 64.7343 59.8227 66.6443 62.1927 66.6443C64.5527 66.6443 66.4627 64.7343 66.4627 62.3743Z" fill="white"/>
<path d="M80.7927 62.3743C80.7927 60.0043 78.8827 58.0943 76.5127 58.0943C74.1527 58.0943 72.2427 60.0043 72.2427 62.3743C72.2427 64.7343 74.1527 66.6443 76.5127 66.6443C78.8827 66.6443 80.7927 64.7343 80.7927 62.3743Z" fill="white"/>
<path d="M73.6427 44.9843C73.6427 42.6143 71.7327 40.7043 69.3627 40.7043C67.0027 40.7043 65.0927 42.6143 65.0927 44.9843C65.0927 47.3443 67.0027 49.2543 69.3627 49.2543C71.7327 49.2543 73.6427 47.3443 73.6427 44.9843Z" fill="white"/>
<path d="M57.3327 44.9843C57.3327 42.6143 55.4127 40.7043 53.0527 40.7043C50.6927 40.7043 48.7727 42.6143 48.7727 44.9843C48.7727 47.3443 50.6927 49.2543 53.0527 49.2543C55.4127 49.2543 57.3327 47.3443 57.3327 44.9843Z" fill="white"/>
<path d="M90.2726 44.9843C90.2726 42.6143 88.3526 40.7043 85.9926 40.7043C83.6326 40.7043 81.7126 42.6143 81.7126 44.9843C81.7126 47.3443 83.6326 49.2543 85.9926 49.2543C88.3526 49.2543 90.2726 47.3443 90.2726 44.9843Z" fill="white"/>
<path d="M65.0927 29.0843C65.0927 26.7243 63.1727 24.8143 60.8127 24.8143C58.4527 24.8143 56.5327 26.7243 56.5327 29.0843C56.5327 31.4443 58.4527 33.3643 60.8127 33.3643C63.1727 33.3643 65.0927 31.4443 65.0927 29.0843Z" fill="white"/>
<path d="M48.7727 29.0843C48.7727 26.7243 46.8627 24.8143 44.5027 24.8143C42.1427 24.8143 40.2227 26.7243 40.2227 29.0843C40.2227 31.4443 42.1427 33.3643 44.5027 33.3643C46.8627 33.3643 48.7727 31.4443 48.7727 29.0843Z" fill="white"/>
<path d="M82.1927 29.0843C82.1927 26.7243 80.2827 24.8143 77.9227 24.8143C75.5527 24.8143 73.6427 26.7243 73.6427 29.0843C73.6427 31.4443 75.5527 33.3643 77.9227 33.3643C80.2827 33.3643 82.1927 31.4443 82.1927 29.0843Z" fill="white"/>
<path d="M98.8227 29.0843C98.8227 26.7243 96.9027 24.8143 94.5427 24.8143C92.1827 24.8143 90.2727 26.7243 90.2727 29.0843C90.2727 31.4443 92.1827 33.3643 94.5427 33.3643C96.9027 33.3643 98.8227 31.4443 98.8227 29.0843Z" fill="white"/>
</svg>
